<?xml version="1.0" standalone="no"?>
<!DOCTYPE svg PUBLIC "-//W3C//DTD SVG 20010904//EN"
 "http://www.w3.org/TR/2001/REC-SVG-20010904/DTD/svg10.dtd">
<svg version="1.0" xmlns="http://www.w3.org/2000/svg"
 width="2300.000000pt" height="3100.000000pt" viewBox="0 0 2300.000000 3100.000000"
 preserveAspectRatio="xMidYMid meet">
<metadata>
Created by potrace 1.16, written by Peter Selinger 2001-2019
</metadata>
<g transform="translate(0.000000,3100.000000) scale(0.100000,-0.100000)"
fill="#000000" stroke="none">
<path d="M14030 30474 c-45 -9 -203 -61 -295 -97 -208 -81 -631 -302 -905
-472 -125 -77 -444 -289 -523 -346 -102 -74 -305 -225 -337 -251 -19 -15 -82
-65 -140 -110 -58 -46 -145 -117 -194 -158 -49 -41 -112 -94 -140 -117 -270
-224 -674 -614 -952 -918 -108 -118 -311 -353 -369 -428 -17 -21 -47 -59 -68
-85 -156 -191 -587 -792 -587 -817 0 -3 -18 -28 -40 -57 -22 -29 -40 -56 -40
-59 0 -5 -59 -103 -183 -304 -14 -22 -38 -62 -53 -90 -15 -27 -50 -88 -76
-135 -63 -110 -320 -624 -380 -760 -26 -58 -70 -161 -98 -230 -28 -69 -55
-134 -60 -145 -59 -138 -231 -629 -265 -760 -7 -27 -29 -104 -48 -170 -42
-147 -70 -253 -96 -365 -11 -47 -29 -124 -40 -172 -19 -76 -42 -200 -72 -380
-5 -32 -14 -86 -20 -120 -5 -35 -14 -92 -19 -128 -15 -116 -20 -128 -64 -162
-149 -117 -355 -331 -496 -518 -120 -159 -185 -260 -333 -520 -25 -45 -327
-649 -327 -655 0 -2 -14 -35 -31 -72 -17 -38 -51 -115 -76 -173 -25 -58 -54
-124 -64 -147 -10 -23 -19 -45 -19 -49 0 -4 -8 -26 -19 -48 -15 -33 -65 -150
-111 -261 -4 -11 -18 -42 -29 -68 -12 -26 -29 -67 -37 -90 -9 -23 -22 -55 -29
-72 -7 -16 -25 -59 -40 -95 -15 -36 -43 -99 -62 -140 -19 -41 -42 -93 -51
-115 -32 -80 -140 -292 -182 -355 -61 -92 -108 -148 -240 -285 -63 -66 -152
-162 -198 -213 -46 -50 -89 -92 -97 -92 -7 0 -36 28 -64 63 -27 34 -77 96
-110 137 -34 41 -82 102 -109 134 -85 107 -461 526 -511 571 -12 10 -43 57
-68 104 -55 99 -92 144 -152 183 -61 38 -158 39 -246 3 -33 -14 -68 -25 -77
-25 -9 0 -29 17 -45 38 -102 139 -161 186 -248 197 -80 11 -189 -37 -299 -131
-48 -41 -64 -42 -118 -7 -124 77 -219 93 -306 49 -56 -29 -106 -81 -168 -177
-51 -78 -51 -78 -153 -50 -103 29 -181 10 -248 -61 -33 -34 -98 -169 -109
-227 -9 -42 -17 -47 -114 -65 -100 -19 -150 -49 -196 -118 -52 -78 -54 -150
-7 -413 12 -73 17 -223 24 -780 4 -379 12 -746 18 -815 5 -69 15 -183 20 -255
6 -71 15 -177 21 -235 6 -58 15 -148 20 -200 5 -52 14 -138 20 -190 6 -52 15
-129 20 -170 25 -223 84 -604 120 -775 5 -22 13 -65 19 -95 18 -93 72 -327
113 -490 22 -85 44 -173 49 -195 42 -171 282 -896 340 -1025 15 -32 21 -48 58
-142 16 -42 39 -97 50 -121 12 -25 21 -48 21 -51 0 -2 13 -33 29 -68 16 -35
55 -121 87 -193 63 -140 267 -553 334 -675 37 -67 82 -149 130 -235 9 -16 53
-91 97 -165 213 -358 193 -312 193 -434 0 -129 -33 -500 -61 -676 -5 -36 -16
-110 -23 -165 -14 -106 -42 -267 -56 -325 -5 -19 -18 -82 -30 -140 -12 -58
-26 -121 -31 -140 -5 -19 -31 -127 -59 -240 -28 -113 -57 -227 -64 -255 -8
-27 -21 -75 -29 -105 -9 -30 -27 -93 -42 -140 -36 -117 -55 -180 -65 -215 -36
-131 -178 -569 -200 -620 -5 -11 -16 -40 -24 -65 -12 -39 -80 -231 -156 -445
-12 -33 -25 -69 -30 -80 -5 -11 -16 -40 -24 -65 -8 -25 -21 -63 -29 -85 -8
-22 -27 -74 -42 -115 -15 -41 -30 -84 -35 -95 -5 -11 -25 -65 -46 -120 -35
-96 -77 -207 -94 -250 -4 -11 -29 -78 -55 -150 -25 -71 -50 -139 -55 -150 -4
-11 -18 -47 -30 -80 -12 -33 -26 -69 -31 -80 -24 -56 -43 -107 -64 -170 -12
-38 -40 -115 -60 -170 -199 -537 -248 -765 -248 -1175 -1 -137 4 -263 11 -303
6 -37 17 -100 23 -140 6 -39 23 -115 36 -167 14 -52 29 -113 35 -135 5 -22 13
-49 17 -60 5 -11 23 -58 40 -105 84 -221 226 -471 378 -664 64 -81 243 -259
331 -329 39 -32 72 -64 72 -72 0 -8 -23 -26 -50 -40 -28 -14 -75 -41 -105 -60
-30 -19 -56 -35 -58 -35 -8 0 -227 -125 -317 -180 -47 -28 -98 -59 -113 -68
-50 -29 -248 -158 -352 -229 -393 -269 -657 -518 -743 -703 -21 -43 -26 -71
-27 -131 0 -83 9 -110 62 -173 22 -27 33 -50 33 -72 0 -86 80 -178 184 -212
37 -12 75 -22 86 -22 11 0 43 -9 72 -19 29 -11 80 -25 112 -30 77 -14 290 -14
414 0 147 16 320 38 392 49 36 6 112 17 170 25 58 9 130 20 160 26 30 5 80 14
110 19 55 9 136 24 300 56 132 25 155 30 310 64 80 17 170 36 200 41 30 5 91
18 135 28 181 43 342 83 380 92 22 6 56 14 75 19 19 5 67 18 105 29 39 12 77
21 86 21 8 0 19 4 24 8 6 5 46 17 90 27 44 10 84 22 90 27 5 4 17 8 26 8 37 0
538 172 657 226 29 13 55 24 57 24 3 0 54 24 114 54 201 100 327 196 381 292
18 30 39 58 48 63 9 5 136 11 282 14 146 3 465 13 710 22 528 19 883 13 1290
-24 94 -9 143 -14 355 -41 33 -4 112 -12 175 -19 63 -6 137 -16 163 -21 27 -6
69 -10 95 -10 25 0 71 -5 101 -10 31 -6 164 -22 296 -36 132 -14 278 -30 325
-35 47 -5 130 -14 185 -19 55 -6 143 -14 195 -20 52 -6 142 -15 199 -20 117
-10 125 -15 156 -90 59 -142 265 -328 549 -496 72 -42 142 -84 156 -94 47 -32
645 -322 744 -362 27 -10 68 -27 91 -38 22 -10 99 -42 170 -71 72 -28 134 -55
140 -60 5 -5 18 -9 30 -9 12 0 25 -4 30 -9 6 -5 66 -30 135 -55 69 -26 134
-51 145 -55 36 -16 184 -69 340 -123 17 -5 39 -14 50 -19 33 -14 479 -159 615
-199 41 -13 93 -28 115 -35 79 -25 353 -93 465 -115 172 -34 227 -40 375 -40
176 0 233 10 310 55 50 30 99 95 110 146 4 16 22 52 40 79 18 26 38 71 45 99
29 122 -55 306 -248 542 -64 78 -340 353 -431 429 -309 257 -508 411 -705 545
-32 22 -69 47 -81 55 -12 8 -95 63 -183 122 -89 59 -162 112 -162 117 0 19
174 141 193 135 12 -4 17 0 17 13 0 10 29 41 63 70 169 140 384 378 492 543
92 141 179 326 223 475 64 220 77 317 76 570 0 271 -13 381 -65 563 -16 56
-34 121 -38 145 -5 23 -17 69 -26 102 -9 33 -23 89 -31 125 -8 36 -19 83 -24
105 -45 193 -106 476 -125 575 -7 41 -19 98 -25 125 -6 28 -16 74 -21 103 -17
99 -28 157 -43 222 -7 36 -17 88 -21 116 -6 50 -6 53 27 78 114 88 237 177
411 296 12 8 87 60 167 116 188 130 308 213 506 346 122 82 164 116 176 142
15 29 17 92 19 470 2 356 5 439 16 448 11 9 50 8 156 -3 186 -18 900 -19 1037
-1 224 30 262 36 423 73 112 26 83 31 347 -59 274 -94 282 -95 329 -81 99 29
175 144 236 355 2 6 20 15 41 19 104 19 186 68 237 142 36 52 74 160 82 235
10 92 10 94 78 132 64 35 154 121 175 166 29 62 34 121 16 212 l-17 87 55 53
c77 74 96 131 73 220 -16 66 -63 168 -115 253 -65 106 -65 108 -41 157 11 24
21 51 21 60 0 34 24 40 111 28 46 -6 98 -9 116 -5 44 8 86 46 121 108 62 112
86 154 122 217 53 91 322 566 351 620 14 25 37 64 52 87 15 24 27 45 27 49 0
3 8 18 19 32 10 15 34 56 53 92 20 36 74 132 122 214 47 82 86 150 86 152 0 3
11 21 23 42 13 20 35 57 49 82 14 25 51 90 83 145 32 55 73 127 90 160 41 75
183 328 260 460 32 55 105 183 162 285 57 102 108 192 113 200 10 17 157 274
180 317 134 243 141 253 168 253 29 0 45 -4 197 -45 268 -71 328 -79 385 -50
31 16 66 67 80 114 9 32 -30 207 -100 446 -18 61 -35 122 -37 138 -3 15 -9 30
-14 33 -5 3 -9 15 -9 28 0 12 -3 25 -6 29 -3 3 -21 52 -40 109 -19 57 -38 112
-43 123 -5 11 -14 36 -21 55 -7 19 -16 44 -20 55 -5 11 -25 65 -45 119 -21 54
-44 111 -51 125 -8 14 -14 29 -14 32 0 37 -364 798 -465 974 -29 50 -66 117
-84 150 -17 33 -39 72 -49 86 -9 15 -33 53 -52 85 -101 172 -394 611 -509 763
-31 40 -63 83 -71 95 -28 40 -293 371 -342 426 -449 509 -559 625 -849 890
-252 231 -532 471 -664 570 -33 25 -96 73 -140 107 -121 94 -120 93 -270 198
-309 217 -478 330 -635 425 -58 35 -129 78 -157 97 -54 34 -279 162 -433 245
-47 25 -113 62 -147 81 -34 20 -169 88 -300 152 -131 65 -246 124 -257 134
-10 9 -37 43 -59 76 -22 33 -53 76 -69 95 -15 19 -60 76 -99 125 -142 181
-390 441 -619 650 -163 149 -394 326 -647 496 -89 60 -165 109 -168 109 -3 0
-43 25 -90 55 -46 30 -87 55 -90 55 -3 0 -22 11 -43 24 -20 12 -104 58 -187
101 -82 43 -166 86 -185 96 -122 65 -293 139 -595 261 -27 11 -95 36 -150 54
-55 19 -107 38 -115 42 -16 9 -224 75 -350 112 -41 12 -86 26 -100 31 -22 7
-108 28 -385 94 -33 8 -121 26 -195 40 -74 14 -157 29 -185 35 -27 5 -88 14
-135 20 -47 7 -112 15 -145 20 -33 5 -116 14 -185 21 -69 7 -129 16 -134 21
-6 4 33 52 95 115 132 137 414 448 484 534 17 21 75 92 130 160 167 205 422
545 510 680 38 60 153 233 215 324 25 39 71 110 101 159 30 49 64 105 76 125
13 20 26 43 30 51 3 8 18 33 32 55 33 52 151 256 151 261 0 3 11 21 24 42 12
20 41 71 63 112 22 41 51 95 65 120 133 240 387 753 483 975 26 61 58 134 71
163 13 29 45 103 70 165 25 61 63 153 85 203 94 220 198 494 268 704 23 69 45
132 50 140 5 9 12 31 16 50 3 19 17 67 30 105 13 39 35 111 50 160 15 50 31
104 36 120 30 96 85 306 105 405 59 280 78 393 100 590 20 181 10 297 -33 388
-37 79 -82 105 -186 108 -45 1 -93 0 -107 -2z m-800 -2333 c131 -24 160 -31
249 -60 72 -24 91 -36 91 -60 0 -16 -102 -274 -175 -441 -20 -47 -54 -125 -75
-175 -20 -49 -52 -121 -70 -160 -18 -38 -51 -113 -75 -165 -51 -113 -351 -707
-422 -835 -28 -49 -70 -126 -95 -170 -69 -125 -186 -325 -243 -415 -12 -19
-55 -89 -96 -155 -144 -235 -342 -525 -498 -734 -47 -63 -105 -139 -128 -170
-240 -323 -662 -791 -975 -1082 l-117 -109 -64 0 c-62 0 -166 -8 -397 -31
-103 -10 -245 -37 -370 -69 -63 -16 -167 -67 -174 -86 -24 -63 6 -78 132 -64
121 14 251 27 412 40 69 6 133 13 142 16 33 10 705 6 790 -4 45 -6 130 -16
188 -22 332 -34 893 -150 1200 -249 36 -11 101 -32 145 -45 100 -31 283 -94
310 -106 11 -5 63 -26 115 -45 245 -94 622 -273 875 -416 362 -205 666 -416
991 -688 116 -97 479 -461 574 -576 76 -91 260 -332 260 -340 0 -2 17 -30 39
-62 122 -182 146 -226 242 -450 21 -49 50 -69 79 -53 46 25 51 85 19 216 -11
46 -18 88 -15 93 7 10 59 -1 79 -17 7 -5 98 -53 202 -107 105 -54 201 -105
215 -114 14 -10 54 -32 89 -51 35 -18 100 -55 143 -81 44 -27 82 -49 84 -49 5
0 149 -89 299 -184 156 -99 471 -311 555 -373 47 -34 109 -79 138 -100 29 -21
81 -60 116 -88 35 -27 87 -68 116 -90 57 -43 86 -67 234 -190 510 -424 978
-895 1356 -1365 56 -69 117 -144 135 -167 110 -133 321 -425 461 -638 26 -38
63 -95 83 -125 21 -30 57 -89 81 -130 24 -41 49 -82 56 -90 6 -8 26 -42 44
-75 59 -107 72 -130 80 -140 25 -32 270 -514 270 -530 0 -29 -107 -94 -199
-120 -284 -83 -846 -69 -1371 34 -58 12 -118 24 -135 27 -78 15 -427 101 -540
134 -227 66 -267 79 -490 161 -172 63 -189 70 -331 140 -115 57 -127 66 -225
168 -161 167 -292 311 -418 461 -178 211 -186 221 -281 347 -14 18 -52 68 -85
110 -33 43 -73 96 -88 118 -15 22 -50 72 -78 110 -55 78 -159 227 -174 252 -5
9 -23 35 -38 57 -50 74 -81 121 -92 138 -5 10 -27 45 -49 79 l-38 61 36 111
c83 258 115 465 116 743 0 230 -26 389 -95 584 -15 41 -29 84 -32 95 -4 11
-23 51 -44 90 -42 79 -76 100 -110 69 -23 -21 -24 -54 -3 -125 8 -30 19 -67
24 -84 4 -16 17 -79 28 -140 11 -60 26 -141 33 -180 19 -103 16 -502 -5 -631
-27 -174 -96 -421 -152 -541 -13 -30 -24 -59 -24 -66 0 -7 -4 -17 -8 -23 -5
-5 -16 -27 -25 -49 -9 -22 -30 -74 -48 -115 -188 -447 -296 -782 -367 -1140
-61 -304 -87 -495 -102 -740 -13 -206 -20 -217 -80 -128 -71 106 -235 262
-340 325 -218 130 -366 172 -625 180 -136 4 -187 2 -255 -12 -47 -9 -106 -21
-132 -25 -132 -24 -374 -139 -524 -251 -127 -94 -173 -137 -259 -244 -195
-242 -290 -463 -331 -765 -14 -108 -15 -142 -5 -245 20 -196 59 -335 138 -490
122 -239 325 -433 563 -535 132 -57 294 -94 450 -103 96 -5 40 -44 -214 -151
-289 -121 -554 -214 -816 -287 -298 -84 -250 -72 -480 -118 -85 -17 -177 -35
-205 -41 -79 -16 -254 -49 -320 -61 -33 -6 -78 -14 -100 -19 -22 -5 -74 -14
-115 -20 -111 -17 -148 -28 -161 -51 -8 -16 -7 -26 5 -44 12 -18 31 -26 86
-35 39 -7 91 -9 114 -6 24 4 101 11 172 17 71 5 156 13 189 18 185 27 344 53
375 61 19 5 91 23 160 40 249 61 750 211 835 249 11 5 92 37 180 72 293 115
562 249 785 392 33 20 64 37 71 37 14 0 475 -231 549 -275 375 -224 492 -296
650 -402 102 -68 212 -143 245 -166 114 -80 260 -187 325 -238 36 -28 98 -76
139 -107 146 -113 292 -231 401 -327 155 -136 312 -277 383 -345 96 -91 413
-432 482 -518 28 -35 68 -84 90 -111 22 -26 54 -67 70 -90 17 -23 41 -57 55
-76 14 -18 50 -71 80 -116 81 -122 115 -154 177 -167 118 -26 243 -110 243
-163 0 -31 -56 -78 -137 -115 -39 -18 -77 -42 -82 -53 -19 -35 -13 -76 17
-104 33 -32 75 -35 128 -10 l36 18 33 -40 c39 -46 135 -227 135 -255 0 -12
-19 -29 -54 -50 -66 -37 -106 -82 -106 -118 0 -15 14 -65 30 -112 37 -105 39
-158 8 -188 -24 -21 -164 -92 -183 -92 -6 0 -25 -15 -42 -33 -31 -32 -32 -32
-35 -157 -5 -197 -32 -230 -186 -230 -117 0 -132 -15 -162 -165 -7 -33 -22
-89 -33 -125 -20 -58 -25 -65 -50 -68 -24 -3 -289 78 -352 108 -11 5 -48 19
-83 30 l-62 20 -118 -29 c-282 -70 -505 -92 -924 -92 -299 1 -495 11 -763 41
-197 21 -514 71 -695 109 -239 50 -674 179 -798 237 -29 13 -56 24 -61 24 -27
0 -32 35 -32 202 0 254 21 607 51 853 6 50 15 124 20 165 35 287 34 269 14
291 -31 35 -65 22 -93 -36 -14 -27 -28 -59 -32 -70 -13 -35 -58 -218 -69 -285
-7 -36 -16 -87 -21 -115 -38 -212 -58 -556 -52 -885 5 -316 13 -546 23 -650 5
-58 14 -161 20 -230 6 -69 15 -163 20 -210 16 -136 60 -499 69 -570 17 -121
41 -285 51 -340 5 -30 16 -104 25 -165 24 -169 62 -397 85 -510 5 -27 23 -120
39 -205 35 -186 28 -152 85 -435 26 -126 53 -257 61 -290 8 -33 21 -89 29
-125 22 -94 133 -543 155 -625 35 -129 45 -225 45 -450 1 -246 -10 -333 -67
-530 -48 -164 -175 -404 -296 -555 -56 -71 -207 -229 -285 -298 -81 -72 -319
-252 -392 -297 -200 -122 -270 -160 -354 -191 -52 -20 -105 -40 -118 -45 -12
-5 -28 -20 -34 -34 -10 -22 -9 -29 10 -48 19 -18 36 -22 103 -26 89 -4 141 7
238 51 35 15 71 28 81 28 9 0 55 -23 101 -51 46 -29 95 -58 109 -66 79 -44
385 -252 549 -373 279 -205 527 -416 742 -630 174 -173 208 -215 192 -231 -6
-6 -35 14 -81 53 -132 117 -167 144 -249 196 -95 60 -225 122 -258 122 -12 0
-30 -9 -40 -20 -35 -39 -11 -70 165 -208 181 -143 420 -365 469 -436 46 -67
81 -130 81 -148 0 -21 -29 -38 -65 -38 -21 0 -29 8 -41 38 -27 67 -38 85 -92
144 -121 131 -365 304 -602 426 -137 71 -191 77 -211 24 -10 -25 -7 -30 35
-69 49 -44 276 -215 397 -298 77 -53 235 -181 257 -208 8 -9 12 -24 10 -34 -6
-31 -111 -17 -408 56 -210 52 -597 171 -905 278 -71 25 -140 48 -153 50 -12 3
-25 9 -28 14 -3 5 -12 9 -20 9 -19 0 -495 177 -629 234 -16 7 -97 41 -180 76
-82 34 -163 68 -179 76 -16 8 -33 14 -38 14 -11 0 -100 42 -383 181 -248 122
-315 158 -499 272 -71 44 -230 163 -277 208 -63 61 -115 137 -102 150 5 5 48
5 98 -1 50 -5 149 -15 220 -22 72 -7 254 -13 405 -13 238 0 283 3 335 19 69
21 95 40 95 71 0 46 -23 52 -210 59 -96 3 -220 10 -275 15 -55 5 -181 17 -280
25 -99 9 -227 20 -285 26 -58 5 -161 14 -230 20 -69 5 -168 15 -220 20 -52 6
-138 15 -190 21 -52 5 -133 14 -180 19 -47 5 -128 14 -180 19 -235 25 -280 31
-355 41 -44 6 -120 15 -170 20 -118 12 -350 38 -450 50 -44 5 -118 14 -165 19
-47 6 -125 15 -175 22 -111 14 -223 24 -430 41 -211 17 -1103 16 -1460 -1
-148 -7 -406 -16 -571 -18 -300 -5 -312 -4 -759 37 -49 5 -144 16 -210 24
-165 21 -173 21 -187 -9 -27 -61 49 -113 232 -158 151 -37 338 -62 534 -70 27
-1 51 -7 53 -13 2 -6 -8 -25 -22 -42 -91 -109 -475 -278 -955 -422 -41 -12
-86 -26 -100 -31 -14 -4 -59 -17 -100 -28 -41 -11 -109 -30 -150 -42 -108 -31
-446 -118 -505 -131 -27 -5 -66 -14 -85 -18 -46 -11 -384 -80 -435 -90 -22 -4
-76 -15 -120 -23 -156 -31 -475 -87 -730 -127 -145 -24 -432 -56 -628 -71
-138 -10 -160 -10 -173 3 -14 14 -11 19 27 52 35 29 373 206 395 206 3 0 90
36 192 79 103 44 218 92 255 106 97 39 121 82 65 119 -32 21 -137 5 -328 -51
-125 -37 -167 -51 -245 -85 -121 -52 -328 -155 -368 -182 -21 -14 -42 -26 -47
-26 -4 0 -45 -36 -90 -80 -83 -81 -112 -94 -118 -54 -8 55 210 243 458 395 79
49 92 56 320 182 80 44 159 87 175 96 81 45 135 84 140 102 10 29 -20 69 -51
69 -36 0 -122 -26 -239 -72 -276 -109 -663 -351 -852 -532 -32 -29 -46 -37
-54 -29 -50 50 172 289 471 508 19 14 52 38 72 53 117 86 424 292 434 292 3 0
31 17 62 39 31 21 77 49 102 62 25 14 64 37 87 52 24 15 45 27 47 27 2 0 51
28 108 61 56 34 179 100 272 147 150 75 173 84 195 74 335 -138 591 -172 591
-78 0 34 -24 49 -140 86 -58 19 -109 37 -115 41 -5 3 -21 10 -35 14 -63 19
-321 151 -403 206 -280 190 -489 422 -658 731 -28 51 -62 120 -75 153 -14 33
-31 74 -38 90 -96 216 -165 587 -166 882 0 217 18 358 76 598 23 97 130 415
164 491 11 24 20 49 20 56 0 11 19 63 51 143 4 11 37 99 73 195 36 96 92 247
125 334 34 88 61 164 61 168 0 5 9 27 19 51 11 23 29 69 41 102 12 33 35 96
51 140 28 74 66 179 171 470 64 179 167 474 194 560 14 44 30 84 35 90 5 5 9
16 9 24 0 8 20 76 44 151 72 221 123 387 162 525 41 147 185 708 204 800 7 33
16 74 21 90 11 37 35 170 54 295 8 52 21 133 29 180 8 47 19 128 26 180 6 52
15 120 20 151 6 30 10 74 10 97 0 58 21 195 31 207 6 5 25 -7 52 -31 54 -53
101 -84 123 -84 23 0 64 39 64 59 -1 25 -62 131 -321 551 -70 114 -93 152
-114 190 -14 25 -43 74 -64 110 -40 66 -102 175 -161 285 -18 33 -41 74 -50
90 -23 38 -207 407 -250 500 -18 39 -49 106 -70 150 -21 44 -68 152 -104 240
-37 88 -71 169 -76 180 -52 115 -205 543 -270 755 -17 58 -36 116 -40 130 -5
14 -23 75 -40 135 -17 61 -35 124 -40 140 -44 154 -132 543 -179 795 -12 63
-26 138 -31 165 -18 99 -31 182 -51 340 -32 254 -39 314 -49 410 -5 50 -14
137 -20 195 -59 564 -73 843 -76 1525 -2 564 -3 606 -23 700 -29 137 -38 260
-20 270 7 5 63 11 125 15 66 3 118 11 127 18 18 16 27 38 68 177 37 123 53
155 79 155 10 0 61 -12 112 -26 51 -14 102 -28 114 -31 32 -7 77 38 135 135
96 160 124 183 174 148 11 -7 45 -27 75 -44 30 -16 77 -42 103 -57 59 -34 82
-29 145 28 102 93 190 157 216 157 8 0 41 -35 72 -77 78 -105 152 -183 191
-199 37 -16 55 -11 134 38 30 18 71 40 92 47 34 11 41 11 58 -5 11 -10 28 -34
37 -53 39 -83 86 -149 169 -235 177 -185 352 -381 453 -510 8 -11 31 -38 50
-60 61 -71 149 -182 190 -242 8 -12 48 -64 87 -117 40 -52 94 -126 119 -163
172 -251 274 -404 274 -412 0 -5 9 -17 20 -27 11 -10 20 -22 20 -27 0 -5 13
-28 29 -51 71 -105 341 -578 428 -750 25 -50 55 -107 67 -126 28 -44 296 -613
296 -628 0 -2 13 -34 30 -70 16 -35 30 -66 30 -69 0 -2 10 -26 21 -52 42 -94
50 -112 120 -293 89 -228 138 -365 196 -539 24 -74 48 -144 52 -155 10 -23
112 -336 166 -510 88 -284 96 -305 117 -316 16 -9 26 -7 47 8 36 27 38 82 10
242 -32 187 -124 528 -150 556 -5 5 -9 19 -9 31 0 13 -5 26 -10 29 -6 3 -10
15 -10 25 0 50 -268 780 -365 995 -21 46 -85 203 -85 209 0 2 35 28 78 57 374
253 617 562 728 924 51 169 63 257 59 435 -7 283 -73 500 -230 759 -53 87
-208 249 -315 328 -133 100 -328 179 -500 203 -82 12 -263 9 -368 -6 -24 -3
-48 -2 -52 2 -5 5 11 40 39 81 58 88 183 337 266 533 15 36 45 104 66 151 22
47 39 90 39 95 1 5 9 27 20 49 11 22 19 44 20 48 0 4 8 27 19 50 25 56 63 145
101 237 17 41 35 84 40 95 5 11 20 47 33 80 35 85 124 291 152 350 12 28 35
77 50 110 43 95 175 362 229 460 26 50 64 122 84 160 20 39 41 77 48 85 6 8
20 31 31 50 59 110 204 311 335 466 84 99 286 289 394 371 59 44 99 71 240
160 52 33 214 123 254 141 210 94 260 116 297 133 24 11 53 23 66 28 12 5 29
21 37 35 13 25 12 29 -11 51 l-24 24 -84 -14 c-120 -21 -153 -30 -305 -85 -77
-28 -194 -84 -283 -136 -39 -24 -74 -40 -77 -37 -15 16 -1 122 55 413 59 312
143 644 239 945 18 55 34 109 37 120 2 11 9 29 13 40 5 11 27 72 49 135 79
227 169 461 227 588 13 29 24 55 24 57 0 3 23 52 50 110 28 58 50 108 50 110
0 7 190 387 199 400 5 5 36 64 71 130 74 142 102 193 147 262 18 28 33 54 33
57 0 4 12 25 27 49 15 23 32 50 38 59 43 75 212 336 283 439 289 420 286 416
577 612 195 131 258 170 380 238 74 40 351 179 359 179 2 0 44 18 91 40 47 22
88 40 91 40 3 0 24 9 47 19 105 47 510 178 677 219 172 42 449 86 595 96 152
10 471 -3 585 -23z m-6540 -9298 c109 -26 234 -79 281 -119 8 -8 19 -14 22
-14 13 0 123 -90 174 -142 83 -86 131 -155 193 -283 101 -206 130 -330 130
-558 0 -233 -31 -367 -131 -572 -71 -145 -138 -238 -267 -369 -122 -123 -311
-266 -354 -266 -8 0 -66 107 -140 258 -183 371 -330 644 -441 819 -15 24 -27
45 -27 48 0 14 -230 371 -458 712 -29 43 -25 59 43 148 96 126 164 190 243
229 140 70 270 111 397 125 93 11 254 3 335 -16z m9698 -1368 c100 -152 198
-288 342 -473 36 -46 74 -97 85 -112 18 -26 193 -234 256 -305 15 -16 64 -73
110 -125 141 -162 357 -385 519 -538 212 -199 254 -238 333 -306 56 -48 66
-61 55 -71 -10 -10 -260 -14 -1148 -19 -624 -3 -1148 -2 -1165 2 -29 8 -30 11
-33 71 -3 61 20 366 38 506 18 144 29 222 39 283 6 34 15 88 20 120 10 62 41
203 66 297 45 169 55 207 78 285 44 147 170 484 188 505 5 5 9 16 9 25 0 8 10
31 21 50 l21 34 30 -34 c17 -19 78 -107 136 -195z m-1698 -1399 c209 -53 372
-145 506 -288 111 -119 187 -251 250 -434 32 -92 37 -122 37 -191 0 -45 -6
-104 -12 -130 -27 -108 -34 -132 -63 -218 -54 -157 -141 -325 -231 -445 -51
-68 -186 -222 -242 -275 -112 -106 -302 -250 -341 -258 -16 -3 -51 -11 -79
-16 -94 -19 -269 -41 -327 -41 -133 0 -311 35 -415 81 -24 11 -47 19 -51 19
-5 0 -46 22 -91 50 -248 148 -413 395 -467 695 -16 91 -19 335 -4 398 46 206
62 251 127 375 79 153 169 269 293 379 71 63 193 149 245 172 11 5 46 21 78
36 108 49 242 88 367 106 79 11 355 1 420 -15z m4058 -918 c221 -149 199 -135
345 -220 347 -203 658 -356 1054 -518 56 -22 115 -45 130 -50 15 -5 73 -25
128 -45 79 -28 389 -132 453 -151 25 -7 19 -23 -69 -181 -10 -18 -34 -61 -53
-95 -19 -35 -50 -90 -69 -123 -20 -33 -52 -89 -72 -125 -39 -69 -230 -404
-245 -430 -24 -41 -127 -225 -145 -258 -11 -20 -33 -59 -49 -87 -122 -212
-228 -399 -266 -470 -18 -33 -38 -67 -44 -75 -7 -8 -27 -44 -46 -80 -18 -36
-43 -81 -55 -100 -32 -51 -173 -296 -211 -365 -18 -33 -64 -114 -103 -180 -38
-66 -93 -163 -122 -215 -29 -52 -72 -128 -96 -168 -24 -40 -48 -83 -54 -95 -5
-12 -15 -31 -22 -42 -7 -11 -36 -61 -64 -112 -29 -51 -69 -118 -89 -149 l-36
-56 -56 7 c-32 3 -75 10 -97 15 -22 5 -65 13 -95 19 -158 31 -200 41 -255 61
-85 31 -98 41 -152 122 -26 39 -55 81 -63 93 -8 12 -24 35 -35 51 -11 16 -32
45 -47 64 -110 138 -140 175 -193 236 -74 85 -277 307 -325 354 -221 218 -525
492 -736 662 -33 26 -99 80 -149 121 -203 164 -624 468 -836 602 -8 6 -38 24
-65 42 -123 80 -204 131 -271 169 -40 23 -78 46 -85 51 -7 6 -35 23 -63 38
-27 16 -86 49 -130 73 -44 25 -156 85 -250 133 -98 50 -171 94 -173 103 -3 16
40 59 169 170 177 150 400 461 491 681 9 22 24 58 33 80 53 126 87 277 104
457 5 54 12 102 16 108 4 7 482 10 1436 10 l1429 0 198 -132z m-4573 -6294
c315 -112 813 -231 1121 -268 55 -7 106 -16 113 -20 9 -6 12 -106 10 -432 -1
-233 -4 -435 -6 -448 -4 -18 -37 -46 -120 -103 -123 -83 -248 -168 -378 -259
-44 -30 -123 -85 -176 -122 -197 -136 -296 -207 -386 -274 -51 -37 -95 -68
-98 -68 -10 0 -23 46 -34 116 -6 38 -15 98 -21 134 -5 36 -15 97 -20 135 -5
39 -14 99 -20 135 -56 359 -103 771 -135 1194 -16 215 -19 309 -8 319 11 12
25 8 158 -39z"/>
<path d="M8430 20645 c-168 -34 -289 -83 -394 -159 -53 -39 -208 -191 -235
-230 -88 -131 -125 -210 -158 -336 -96 -372 35 -744 342 -970 132 -97 261
-148 432 -170 89 -11 112 -10 258 11 252 37 502 202 650 429 69 106 102 179
135 295 34 116 34 322 1 450 -66 255 -224 459 -451 583 -175 96 -399 133 -580
97z m568 -214 c72 -22 97 -37 160 -94 116 -107 150 -299 81 -457 -29 -66 -112
-146 -192 -186 -180 -88 -413 -26 -521 139 -48 75 -60 120 -61 227 0 83 3 102
28 153 30 64 101 145 155 179 95 59 234 74 350 39z"/>
<path d="M14045 18663 c-190 -50 -336 -129 -456 -245 -130 -126 -219 -280
-266 -460 -35 -138 -37 -340 -4 -462 61 -224 166 -386 335 -522 110 -88 227
-141 399 -183 68 -16 235 -14 324 5 232 48 455 199 580 393 50 78 112 204 120
243 3 18 9 38 14 43 16 21 32 222 26 330 -17 324 -239 654 -525 782 -147 66
-196 76 -367 79 -88 1 -169 0 -180 -3z m220 -90 c118 -31 228 -132 277 -253
19 -46 23 -74 23 -175 l0 -120 -44 -88 c-64 -128 -155 -198 -296 -228 -163
-33 -359 68 -434 223 -25 53 -51 164 -51 218 1 57 27 150 61 218 55 107 178
198 288 212 90 12 109 11 176 -7z"/>
<path d="M11015 18555 c-14 -13 -25 -34 -25 -47 1 -45 36 -165 63 -211 52 -88
105 -102 240 -64 112 33 147 57 147 101 0 34 -35 92 -81 132 -60 53 -208 114
-278 114 -31 0 -48 -6 -66 -25z"/>
<path d="M9156 17971 c-15 -17 -17 -35 -15 -108 4 -76 9 -97 39 -157 19 -38
51 -90 73 -114 32 -38 38 -50 33 -76 -3 -17 -12 -80 -21 -141 -8 -60 -19 -141
-25 -180 -14 -98 -29 -236 -60 -520 -16 -151 -29 -360 -41 -666 -15 -382 7
-852 50 -1054 55 -257 96 -379 178 -520 53 -92 80 -125 163 -199 65 -58 125
-91 235 -127 60 -20 90 -23 205 -23 155 0 217 13 347 74 304 142 637 482 955
975 246 383 375 613 643 1149 163 327 171 341 200 344 62 7 187 42 242 69 66
32 153 114 173 163 13 31 12 34 -14 57 -30 26 -55 24 -91 -6 -25 -22 -112 -59
-184 -78 -76 -20 -324 -19 -423 1 -85 18 -205 52 -230 66 -10 6 -22 10 -28 10
-21 0 -198 106 -284 170 -130 96 -267 255 -334 386 -11 21 -32 50 -46 63 -29
28 -42 27 -231 -12 -212 -45 -289 -52 -520 -51 -184 1 -236 4 -320 22 -104 23
-203 58 -294 105 -99 53 -259 237 -276 320 -15 73 -62 99 -99 58z m371 -575
c171 -85 375 -120 668 -113 215 5 342 17 473 48 129 30 135 29 176 -38 89
-148 260 -321 411 -419 176 -113 402 -202 562 -221 77 -9 78 -7 -67 -300 -126
-255 -153 -303 -171 -303 -4 0 -40 44 -80 98 -85 115 -252 280 -364 360 -78
56 -181 122 -190 122 -2 0 -27 14 -56 31 -64 37 -254 119 -277 119 -10 0 -22
4 -27 8 -10 8 -60 24 -135 42 -179 44 -280 54 -482 47 -192 -7 -289 -23 -462
-80 -60 -20 -114 -33 -119 -30 -12 7 -5 110 22 318 32 254 41 308 52 322 14
16 9 17 66 -11z m703 -711 c305 -41 585 -156 835 -344 182 -137 405 -419 405
-512 0 -13 -21 -60 -47 -105 -27 -44 -70 -120 -98 -168 -269 -468 -587 -881
-822 -1071 -59 -48 -115 -90 -123 -93 -8 -3 -25 -13 -38 -23 -34 -26 -169 -80
-237 -95 -164 -36 -352 3 -471 97 -46 36 -116 133 -151 209 -139 301 -198 837
-163 1481 18 341 31 467 49 483 9 8 51 28 94 45 246 98 508 130 767 96z"/>
</g>
</svg>
